<?xml version="1.0" encoding="UTF-8" standalone="no"?>
<!DOCTYPE svg PUBLIC "-//W3C//DTD SVG 1.1//EN"
 "http://www.w3.org/Graphics/SVG/1.1/DTD/svg11.dtd">
<!-- Generated by graphviz version 2.28.0 (20110507.0327)
 -->
<!-- Title: G Pages: 1 -->
<svg width="334pt" height="258pt"
 viewBox="0.00 0.00 334.00 258.00" xmlns="http://www.w3.org/2000/svg" xmlns:xlink="http://www.w3.org/1999/xlink">
<g id="graph1" class="graph" transform="scale(1 1) rotate(0) translate(4 254)">
<title>G</title>
<polygon fill="white" stroke="white" points="-4,5 -4,-254 331,-254 331,5 -4,5"/>
<g id="graph2" class="cluster"><title>cluster_global</title>
<polyline fill="none" stroke="gray" points="202,-8 306,-8 "/>
<path fill="none" stroke="gray" d="M306,-8C312,-8 318,-14 318,-20"/>
<polyline fill="none" stroke="gray" points="318,-20 318,-230 "/>
<path fill="none" stroke="gray" d="M318,-230C318,-236 312,-242 306,-242"/>
<polyline fill="none" stroke="gray" points="306,-242 202,-242 "/>
<path fill="none" stroke="gray" d="M202,-242C196,-242 190,-236 190,-230"/>
<polyline fill="none" stroke="gray" points="190,-230 190,-20 "/>
<path fill="none" stroke="gray" d="M190,-20C190,-14 196,-8 202,-8"/>
<text text-anchor="middle" x="254" y="-229.2" font-family="Times New Roman,serif" font-size="11.00" fill="gray">global</text>
</g>
<!-- \\Phery -->
<g id="node2" class="node"><title>\\Phery</title>
<a xlink:href="Phery.html" xlink:title="Phery" target="_parent">
<polygon fill="none" stroke="black" points="281,-214 227,-214 227,-178 281,-178 281,-214"/>
<text text-anchor="middle" x="254" y="-193.2" font-family="Courier,monospace" font-size="11.00">Phery</text>
</a>
</g>
<!-- \\ArrayAccess -->
<g id="node11" class="node"><title>\\ArrayAccess</title>
<ellipse fill="none" stroke="black" cx="63" cy="-196" rx="63.0888" ry="18"/>
<text text-anchor="middle" x="63" y="-192.3" font-family="Times New Roman,serif" font-size="14.00" fill="gray">\\ArrayAccess</text>
</g>
<!-- \\Phery&#45;&gt;\\ArrayAccess -->
<g id="edge7" class="edge"><title>\\Phery&#45;&gt;\\ArrayAccess</title>
<path fill="none" stroke="black" stroke-dasharray="1,5" d="M226.72,-196C203.382,-196 168.156,-196 136.441,-196"/>
<polygon fill="none" stroke="black" points="136.287,-192.5 126.287,-196 136.287,-199.5 136.287,-192.5"/>
</g>
<!-- \\PheryResponse -->
<g id="node3" class="node"><title>\\PheryResponse</title>
<a xlink:href="Phery.html" xlink:title="PheryResponse" target="_parent">
<polygon fill="none" stroke="black" points="306,-160 202,-160 202,-124 306,-124 306,-160"/>
<text text-anchor="middle" x="254" y="-139.2" font-family="Courier,monospace" font-size="11.00">PheryResponse</text>
</a>
</g>
<!-- \\ArrayObject -->
<g id="node7" class="node"><title>\\ArrayObject</title>
<ellipse fill="none" stroke="black" cx="63" cy="-142" rx="57.6901" ry="18"/>
<text text-anchor="middle" x="63" y="-138.3" font-family="Times New Roman,serif" font-size="14.00" fill="gray">\ArrayObject</text>
</g>
<!-- \\PheryResponse&#45;&gt;\\ArrayObject -->
<g id="edge3" class="edge"><title>\\PheryResponse&#45;&gt;\\ArrayObject</title>
<path fill="none" stroke="black" d="M201.854,-142C180.046,-142 154.306,-142 131.007,-142"/>
<polygon fill="none" stroke="black" points="130.845,-138.5 120.845,-142 130.845,-145.5 130.845,-138.5"/>
</g>
<!-- \\PheryFunction -->
<g id="node4" class="node"><title>\\PheryFunction</title>
<a xlink:href="Phery.html" xlink:title="PheryFunction" target="_parent">
<polygon fill="none" stroke="black" points="306,-106 202,-106 202,-70 306,-70 306,-106"/>
<text text-anchor="middle" x="254" y="-85.2" font-family="Courier,monospace" font-size="11.00">PheryFunction</text>
</a>
</g>
<!-- \\PheryException -->
<g id="node5" class="node"><title>\\PheryException</title>
<a xlink:href="Phery.html" xlink:title="PheryException" target="_parent">
<polygon fill="none" stroke="black" points="309.5,-52 198.5,-52 198.5,-16 309.5,-16 309.5,-52"/>
<text text-anchor="middle" x="254" y="-31.2" font-family="Courier,monospace" font-size="11.00">PheryException</text>
</a>
</g>
<!-- \\Exception -->
<g id="node9" class="node"><title>\\Exception</title>
<ellipse fill="none" stroke="black" cx="63" cy="-34" rx="50.0912" ry="18"/>
<text text-anchor="middle" x="63" y="-30.3" font-family="Times New Roman,serif" font-size="14.00" fill="gray">\Exception</text>
</g>
<!-- \\PheryException&#45;&gt;\\Exception -->
<g id="edge5" class="edge"><title>\\PheryException&#45;&gt;\\Exception</title>
<path fill="none" stroke="black" d="M198.333,-34C174.771,-34 147.165,-34 123.127,-34"/>
<polygon fill="none" stroke="black" points="123.066,-30.5001 113.066,-34 123.066,-37.5001 123.066,-30.5001"/>
</g>
</g>
</svg>
